<svg xmlns="http://www.w3.org/2000/svg" width="12" height="13" viewBox="0 0 12 13" fill="none">
  <g clip-path="url(#clip0_6526_28956)">
    <path d="M3.26817 5.60657H2.32131C2.20157 5.60657 2.10449 5.70327 2.10449 5.82255V6.76576C2.10449 6.88505 2.20157 6.98175 2.32131 6.98175H3.26817C3.38792 6.98175 3.48499 6.88505 3.48499 6.76576V5.82255C3.48499 5.70327 3.38792 5.60657 3.26817 5.60657Z" fill="#003553"/>
    <path d="M5.40489 5.60657H4.45803C4.33828 5.60657 4.24121 5.70327 4.24121 5.82255V6.76576C4.24121 6.88505 4.33828 6.98175 4.45803 6.98175H5.40489C5.52464 6.98175 5.62171 6.88505 5.62171 6.76576V5.82255C5.62171 5.70327 5.52464 5.60657 5.40489 5.60657Z" fill="#003553"/>
    <path d="M7.54259 5.60657H6.59573C6.47598 5.60657 6.37891 5.70327 6.37891 5.82255V6.76576C6.37891 6.88505 6.47598 6.98175 6.59573 6.98175H7.54259C7.66233 6.98175 7.75941 6.88505 7.75941 6.76576V5.82255C7.75941 5.70327 7.66233 5.60657 7.54259 5.60657Z" fill="#003553"/>
    <path d="M9.67931 5.60657H8.73245C8.6127 5.60657 8.51562 5.70327 8.51562 5.82255V6.76576C8.51562 6.88505 8.6127 6.98175 8.73245 6.98175H9.67931C9.79905 6.98175 9.89613 6.88505 9.89613 6.76576V5.82255C9.89613 5.70327 9.79905 5.60657 9.67931 5.60657Z" fill="#003553"/>
    <path d="M3.26817 7.73157H2.32131C2.20157 7.73157 2.10449 7.82827 2.10449 7.94755V8.89076C2.10449 9.01005 2.20157 9.10675 2.32131 9.10675H3.26817C3.38792 9.10675 3.48499 9.01005 3.48499 8.89076V7.94755C3.48499 7.82827 3.38792 7.73157 3.26817 7.73157Z" fill="#003553"/>
    <path d="M5.40489 7.73157H4.45803C4.33828 7.73157 4.24121 7.82827 4.24121 7.94755V8.89076C4.24121 9.01005 4.33828 9.10675 4.45803 9.10675H5.40489C5.52464 9.10675 5.62171 9.01005 5.62171 8.89076V7.94755C5.62171 7.82827 5.52464 7.73157 5.40489 7.73157Z" fill="#003553"/>
    <path d="M7.54259 7.73157H6.59573C6.47598 7.73157 6.37891 7.82827 6.37891 7.94755V8.89076C6.37891 9.01005 6.47598 9.10675 6.59573 9.10675H7.54259C7.66233 9.10675 7.75941 9.01005 7.75941 8.89076V7.94755C7.75941 7.82827 7.66233 7.73157 7.54259 7.73157Z" fill="#003553"/>
    <path d="M9.67931 7.73157H8.73245C8.6127 7.73157 8.51562 7.82827 8.51562 7.94755V8.89076C8.51562 9.01005 8.6127 9.10675 8.73245 9.10675H9.67931C9.79905 9.10675 9.89613 9.01005 9.89613 8.89076V7.94755C9.89613 7.82827 9.79905 7.73157 9.67931 7.73157Z" fill="#003553"/>
    <path d="M3.26817 9.85657H2.32131C2.20157 9.85657 2.10449 9.95327 2.10449 10.0726V11.0158C2.10449 11.135 2.20157 11.2317 2.32131 11.2317H3.26817C3.38792 11.2317 3.48499 11.135 3.48499 11.0158V10.0726C3.48499 9.95327 3.38792 9.85657 3.26817 9.85657Z" fill="#003553"/>
    <path d="M5.40489 9.85657H4.45803C4.33828 9.85657 4.24121 9.95327 4.24121 10.0726V11.0158C4.24121 11.135 4.33828 11.2317 4.45803 11.2317H5.40489C5.52464 11.2317 5.62171 11.135 5.62171 11.0158V10.0726C5.62171 9.95327 5.52464 9.85657 5.40489 9.85657Z" fill="#003553"/>
    <path d="M7.54259 9.85657H6.59573C6.47598 9.85657 6.37891 9.95327 6.37891 10.0726V11.0158C6.37891 11.135 6.47598 11.2317 6.59573 11.2317H7.54259C7.66233 11.2317 7.75941 11.135 7.75941 11.0158V10.0726C7.75941 9.95327 7.66233 9.85657 7.54259 9.85657Z" fill="#003553"/>
    <path d="M11.1372 1.32233H9.47347V0.462811C9.4731 0.340178 9.42404 0.222673 9.33699 0.135958C9.24994 0.0492435 9.13198 0.000365661 9.00887 0C8.88576 0.000365661 8.7678 0.0492435 8.68075 0.135958C8.5937 0.222673 8.54464 0.340178 8.54427 0.462811V1.32233H3.45573V0.462811C3.45536 0.340178 3.4063 0.222673 3.31925 0.135958C3.2322 0.0492435 3.11424 0.000365661 2.99113 0C2.86802 0.000365661 2.75006 0.0492435 2.66301 0.135958C2.57596 0.222673 2.52689 0.340178 2.52653 0.462811V1.32233H0.862845C0.749535 1.32233 0.637335 1.34456 0.532649 1.38776C0.427964 1.43095 0.332845 1.49426 0.252722 1.57408C0.172599 1.65389 0.109042 1.74864 0.0656799 1.85293C0.0223179 1.95721 0 2.06898 0 2.18185V11.9406C-5.75709e-10 12.0534 0.0223189 12.1652 0.0656821 12.2695C0.109045 12.3738 0.172604 12.4685 0.252727 12.5483C0.332851 12.6281 0.427971 12.6914 0.532656 12.7346C0.63734 12.7778 0.749539 12.8 0.862845 12.8H11.1372C11.2505 12.8 11.3627 12.7778 11.4673 12.7346C11.572 12.6914 11.6671 12.6281 11.7473 12.5483C11.8274 12.4685 11.891 12.3738 11.9343 12.2695C11.9777 12.1652 12 12.0534 12 11.9406V2.18185C12 2.06898 11.9777 1.95721 11.9343 1.85293C11.891 1.74864 11.8274 1.65389 11.7473 1.57408C11.6672 1.49426 11.572 1.43095 11.4674 1.38776C11.3627 1.34456 11.2505 1.32233 11.1372 1.32233ZM8.54427 2.03656V2.56088C8.54464 2.68358 8.59375 2.80113 8.68087 2.88786C8.768 2.97458 8.88605 3.02342 9.00922 3.02369C9.13233 3.02333 9.25029 2.97445 9.33734 2.88774C9.42439 2.80102 9.47345 2.68352 9.47382 2.56088V2.03656C9.58838 2.13167 9.67075 2.25963 9.70971 2.40303C9.74867 2.54643 9.74233 2.6983 9.69156 2.83799C9.64079 2.97767 9.54805 3.09838 9.42596 3.18369C9.30386 3.269 9.15835 3.31477 9.00922 3.31477C8.86008 3.31477 8.71457 3.269 8.59248 3.18369C8.47039 3.09838 8.37765 2.97767 8.32688 2.83799C8.2761 2.6983 8.26977 2.54643 8.30873 2.40303C8.34769 2.25963 8.42971 2.13167 8.54427 2.03656ZM2.52653 2.03656V2.56088C2.52689 2.68346 2.57591 2.80091 2.66289 2.88761C2.74986 2.97432 2.86773 3.02324 2.99078 3.02369C3.11389 3.02333 3.23185 2.97445 3.3189 2.88774C3.40595 2.80102 3.45502 2.68352 3.45538 2.56088V2.03656C3.56995 2.13167 3.65231 2.25963 3.69127 2.40303C3.73023 2.54643 3.72389 2.6983 3.67312 2.83799C3.62235 2.97767 3.52961 3.09838 3.40752 3.18369C3.28543 3.269 3.13991 3.31477 2.99078 3.31477C2.84165 3.31477 2.69613 3.269 2.57404 3.18369C2.45195 3.09838 2.35921 2.97767 2.30844 2.83799C2.25767 2.6983 2.25133 2.54643 2.29029 2.40303C2.32925 2.25963 2.41196 2.13167 2.52653 2.03656ZM11.2832 11.7686C11.2832 11.8528 11.2496 11.9335 11.1899 11.993C11.1301 12.0526 11.0491 12.086 10.9646 12.086H1.0354C0.950898 12.086 0.869866 12.0526 0.810124 11.993C0.750382 11.9335 0.716821 11.8528 0.716821 11.7686V4.74317H11.2832V11.7686Z" fill="#003553"/>
  </g>
  <defs>
    <clipPath id="clip0_6526_28956">
      <rect width="12" height="12.8" fill="white"/>
    </clipPath>
  </defs>
</svg>