<svg width="20" height="17" viewBox="0 0 20 17" fill="none" xmlns="http://www.w3.org/2000/svg">
<path d="M19.0002 16.4226C19.5511 16.4608 20 16.0083 20 15.4561V14.3492C20 13.8457 19.623 13.4295 19.1331 13.3133C18.0516 13.0566 17.2464 12.5982 16.7176 11.9381C16.1069 11.1608 15.8015 9.75202 15.8015 7.71166H17.8473C18.9519 7.71166 19.8473 6.81623 19.8473 5.71166V2.20606C19.8473 1.10149 18.9519 0.206055 17.8473 0.206055H13.6031C12.4985 0.206055 11.6031 1.10149 11.6031 2.20605V6.4C11.6031 9.65486 12.2392 12.1324 13.5114 13.8327C14.6401 15.3842 16.4697 16.2475 19.0002 16.4226ZM7.39711 16.4226C7.94808 16.4608 8.39695 16.0083 8.39695 15.4561V14.3492C8.39695 13.8457 8.01995 13.4295 7.53009 13.3133C6.44851 13.0566 5.64332 12.5982 5.1145 11.9381C4.50382 11.1608 4.19847 9.75202 4.19847 7.71166H6.24427C7.34884 7.71166 8.24428 6.81623 8.24428 5.71166V2.20606C8.24428 1.10149 7.34884 0.206055 6.24427 0.206055H2C0.89543 0.206055 0 1.10149 0 2.20605V6.4C0 9.65486 0.636132 12.1324 1.9084 13.8327C3.03707 15.3842 4.86664 16.2475 7.39711 16.4226Z" fill="#CBD2D9"/>
</svg>
