<svg width="16" height="16" viewBox="0 0 16 16" fill="none" xmlns="http://www.w3.org/2000/svg">
<path d="M7.47346 1.00539C7.42144 1.01086 7.25991 1.03003 7.11755 1.04646C4.95197 1.29285 2.95066 2.65079 1.85008 4.61924C1.45036 5.33654 1.16016 6.22905 1.03696 7.12157C0.98768 7.46379 0.98768 8.53152 1.03696 8.87374C1.32443 10.9599 2.43596 12.7313 4.17444 13.8729C6.47417 15.3842 9.52952 15.3787 11.832 13.862C15.298 11.5759 16.0454 6.82315 13.45 3.60353C12.3303 2.21548 10.7834 1.33392 8.97923 1.05741C8.70545 1.01634 7.687 0.980749 7.47346 1.00539ZM8.96554 1.94444C10.6849 2.23465 12.1359 3.17097 13.1023 4.61924C13.5924 5.35023 13.9127 6.18799 14.0633 7.10788C14.129 7.52676 14.129 8.46855 14.0633 8.88743C13.7676 10.7163 12.7656 12.233 11.2105 13.2131C10.5452 13.632 9.74033 13.9277 8.88341 14.0673C8.46179 14.133 7.52274 14.133 7.10386 14.0646C5.30241 13.7716 3.82675 12.8189 2.84115 11.3104C2.3812 10.6067 2.07184 9.78542 1.924 8.88743C1.85829 8.46855 1.85829 7.52676 1.924 7.10788C2.14576 5.74721 2.72069 4.61103 3.66522 3.67198C4.71105 2.62889 6.02518 2.01563 7.50083 1.88148C7.79651 1.8541 8.64522 1.89243 8.96554 1.94444Z" fill="#003553"/>
<path d="M7.81521 3.65555C7.61261 3.74864 7.55512 3.88279 7.55512 4.2606V4.54259L7.37169 4.60009C7.12803 4.67401 6.87889 4.82458 6.65166 5.03265C5.98638 5.64865 5.83306 6.6671 6.28753 7.4501C6.34503 7.54866 6.49013 7.72662 6.61059 7.84708C6.99114 8.22763 7.34979 8.38642 7.94388 8.43296C8.2423 8.4576 8.29979 8.47129 8.47501 8.55616C8.71046 8.67389 8.86925 8.83815 8.98697 9.08729C9.06637 9.25429 9.07458 9.29536 9.07458 9.53081C9.07458 9.76626 9.06637 9.80732 8.98697 9.97433C8.86651 10.2289 8.7132 10.3877 8.46406 10.5109C8.26694 10.6068 8.2423 10.6122 7.9959 10.6122C7.75771 10.6122 7.71665 10.604 7.55512 10.5274C7.16636 10.3412 6.94733 10.0291 6.90079 9.5883C6.87342 9.34738 6.83509 9.26798 6.69546 9.16395C6.6407 9.12014 6.58047 9.10646 6.46001 9.10646C6.28753 9.10646 6.19992 9.15026 6.09589 9.28989C5.93436 9.50617 6.06304 10.1714 6.35324 10.615C6.575 10.9572 6.99661 11.283 7.36895 11.3952L7.54964 11.45L7.5606 11.7758C7.56881 12.1262 7.59071 12.1837 7.75771 12.3069C7.86449 12.3863 8.12184 12.3863 8.22861 12.3069C8.39562 12.1837 8.41752 12.1262 8.42573 11.7813L8.43668 11.4609L8.65023 11.3843C9.47703 11.0913 10.0164 10.2673 9.95614 9.39118C9.92055 8.9066 9.73438 8.50688 9.37574 8.14824C8.99519 7.76769 8.63654 7.6089 8.04244 7.56235C7.74403 7.53771 7.68653 7.52402 7.51132 7.43915C7.27587 7.32143 7.11708 7.15716 6.99935 6.90803C6.91996 6.74102 6.91174 6.69996 6.91174 6.46177C6.91174 6.21537 6.91722 6.19073 7.01304 5.99361C7.13624 5.74447 7.29503 5.59116 7.54964 5.4707C7.71665 5.3913 7.75771 5.38309 7.99316 5.38309C8.22861 5.38309 8.26968 5.3913 8.43668 5.4707C8.81723 5.65139 9.03899 5.96897 9.08553 6.40701C9.11291 6.64794 9.15124 6.72733 9.29087 6.83137C9.39764 6.91076 9.65499 6.91076 9.76176 6.83137C9.95067 6.69174 9.99447 6.52474 9.93698 6.16883C9.81926 5.44058 9.29634 4.81637 8.61737 4.59735L8.43668 4.53986L8.42573 4.2168C8.41752 3.8691 8.39562 3.81161 8.23409 3.69115C8.141 3.6227 7.92472 3.60354 7.81521 3.65555Z" fill="#003553"/>
</svg>
