<svg width="14" height="14" viewBox="0 0 14 14" fill="none" xmlns="http://www.w3.org/2000/svg">
<path d="M13.4888 13.75H0.730126C0.468881 13.75 0.25 13.5382 0.25 13.2699V5.3125C0.370031 5.06538 0.56773 4.98771 0.843096 4.98771C1.60565 5.00889 2.37526 4.99477 3.13781 4.99477C3.2296 4.99477 3.32139 4.99477 3.41318 4.99477V2.62238C3.30727 2.62238 3.20842 2.62238 3.11663 2.62238C2.80596 2.61532 2.65063 2.48823 2.64357 2.18462C2.63651 1.69038 2.62945 1.18907 2.64357 0.694822C2.65063 0.447699 2.84833 0.25 3.09545 0.25C5.70084 0.25 8.29916 0.25 10.9045 0.25C11.2011 0.25 11.3564 0.391213 11.3635 0.67364C11.3776 1.18201 11.3776 1.69038 11.3635 2.20581C11.3564 2.48117 11.2011 2.61532 10.9257 2.62238C10.8128 2.62238 10.7069 2.62238 10.5939 2.62238V4.99477C10.6998 4.99477 10.7986 4.99477 10.8904 4.99477C11.653 4.99477 12.4226 4.99477 13.1851 4.99477C13.6229 4.99477 13.7429 5.1148 13.7429 5.55962C13.7429 8.10146 13.7429 10.6433 13.75 13.1781C13.7429 13.4181 13.6794 13.6088 13.4888 13.75ZM9.73954 12.9521V2.63651H4.26046V12.9451H5.00889C5.00889 12.0484 5.00889 11.1658 5.00889 10.2903C5.00889 9.85957 5.15717 9.73954 5.60905 9.75366C6.49163 9.7819 7.38128 9.79603 8.26386 9.75366C8.8499 9.72542 8.99111 9.81721 8.99111 10.3326C8.99111 11.1164 8.99111 11.9001 8.99111 12.6768C8.99111 12.7686 8.99817 12.8604 9.00523 12.9592H9.73954V12.9521ZM1.09022 12.9451H3.41318V5.80675H1.09022V12.9451ZM12.9098 5.79969H10.5868V12.938H12.9098V5.79969ZM10.5374 1.05492H3.46967V1.81747H10.5374V1.05492ZM5.84205 12.9451H6.57636V10.5515H5.84205V12.9451ZM7.4307 10.5515V12.9451H8.16501V10.5515H7.4307Z" fill="#003553"/>
<path d="M6.58321 5.00964C6.26548 4.97434 5.83478 5.09437 5.82772 4.61425C5.82066 4.11294 6.26548 4.23297 6.58321 4.19767C6.63264 3.87287 6.50554 3.41393 7.02803 3.42805C7.50816 3.44217 7.38107 3.87994 7.43049 4.19767C7.74822 4.23297 8.20717 4.10588 8.18598 4.62837C8.1648 5.08731 7.74822 4.9814 7.43755 5.00258C7.37401 5.32031 7.52228 5.77219 6.97155 5.77926C6.69618 5.78632 6.62558 5.62392 6.58321 5.00964Z" fill="#003553"/>
<path d="M5.82052 6.97057C5.82052 7.18945 5.63694 7.37303 5.41806 7.36597C5.19212 7.36597 5.0156 7.18239 5.02267 6.96351C5.02973 6.75169 5.19918 6.58224 5.411 6.58224C5.62988 6.57518 5.82052 6.75169 5.82052 6.97057Z" fill="#003553"/>
<path d="M6.99472 7.36718C6.76878 7.36718 6.59227 7.17654 6.59933 6.95766C6.60639 6.73878 6.79702 6.56932 7.02297 6.57638C7.23479 6.58345 7.40424 6.75996 7.40424 6.97178C7.40424 7.19066 7.22066 7.37424 6.99472 7.36718Z" fill="#003553"/>
<path d="M8.98285 6.97763C8.98285 7.19651 8.79928 7.37302 8.57334 7.37302C8.34739 7.36596 8.17088 7.18239 8.17794 6.9635C8.185 6.75168 8.36152 6.58929 8.57334 6.58223C8.79928 6.57517 8.98285 6.75875 8.98285 6.97763Z" fill="#003553"/>
<path d="M5.82396 8.54613C5.83102 8.76501 5.6545 8.94859 5.42856 8.95565C5.20262 8.95565 5.01904 8.77913 5.01904 8.56025C5.01904 8.35549 5.1885 8.17898 5.40032 8.16485C5.62626 8.15073 5.8169 8.32725 5.82396 8.54613Z" fill="#003553"/>
<path d="M6.59912 8.55946C6.59912 8.34058 6.7827 8.16406 7.00864 8.16406C7.23458 8.16406 7.4111 8.3547 7.40404 8.57358C7.39698 8.7854 7.22046 8.9478 7.00864 8.95486C6.78976 8.95486 6.59912 8.77128 6.59912 8.55946Z" fill="#003553"/>
<path d="M8.98341 8.56652C8.97635 8.7854 8.79278 8.96192 8.56684 8.95486C8.34795 8.9478 8.16438 8.75716 8.1785 8.53828C8.19262 8.32646 8.36914 8.16406 8.58096 8.16406C8.8069 8.16406 8.99047 8.34764 8.98341 8.56652Z" fill="#003553"/>
<path d="M2.25058 7.36718C2.02464 7.36718 1.84812 7.17654 1.85519 6.95766C1.86225 6.73878 2.05288 6.56932 2.27883 6.57638C2.49065 6.58345 2.6601 6.75996 2.6601 6.97178C2.6601 7.19066 2.47652 7.37424 2.25058 7.36718Z" fill="#003553"/>
<path d="M2.2645 8.949C2.03856 8.949 1.85498 8.77248 1.85498 8.5536C1.85498 8.33472 2.04562 8.1582 2.2645 8.1582C2.47632 8.16526 2.65284 8.32766 2.6599 8.53948C2.66696 8.76542 2.48338 8.949 2.2645 8.949Z" fill="#003553"/>
<path d="M2.24408 10.5319C2.0252 10.5248 1.84162 10.3342 1.85574 10.1153C1.86987 9.89639 2.0605 9.72694 2.27938 9.74106C2.4912 9.75518 2.66066 9.9317 2.6536 10.1435C2.6536 10.3695 2.47002 10.5389 2.24408 10.5319Z" fill="#003553"/>
<path d="M2.66069 11.7386C2.65363 11.9575 2.46299 12.127 2.23705 12.1199C2.01817 12.1128 1.84165 11.9151 1.85577 11.7033C1.86989 11.4915 2.04641 11.3291 2.25823 11.3362C2.48417 11.3291 2.66775 11.5197 2.66069 11.7386Z" fill="#003553"/>
<path d="M12.1475 6.98471C12.1404 7.20359 11.9498 7.37305 11.7239 7.36599C11.505 7.35893 11.3285 7.16123 11.3426 6.94941C11.3567 6.73759 11.5332 6.57519 11.745 6.58225C11.978 6.58225 12.1616 6.76583 12.1475 6.98471Z" fill="#003553"/>
<path d="M11.7498 8.948C11.5239 8.948 11.3403 8.76442 11.3474 8.5526C11.3474 8.33372 11.538 8.15721 11.7639 8.16427C11.9758 8.17133 12.1523 8.34078 12.1523 8.5526C12.1523 8.76442 11.9758 8.948 11.7498 8.948Z" fill="#003553"/>
<path d="M12.1482 10.1781C12.12 10.397 11.9293 10.5523 11.7034 10.5311C11.4845 10.5099 11.3221 10.2981 11.3504 10.0863C11.3857 9.86035 11.5834 9.71207 11.8022 9.74738C12.0141 9.77562 12.1694 9.98038 12.1482 10.1781Z" fill="#003553"/>
<path d="M11.7428 12.1191C11.5168 12.1191 11.3403 11.9285 11.3474 11.7096C11.3544 11.4907 11.5451 11.3213 11.771 11.3283C11.9828 11.3354 12.1523 11.5119 12.1523 11.7237C12.1523 11.9426 11.9617 12.1191 11.7428 12.1191Z" fill="#003553"/>
</svg>
