<svg xmlns="http://www.w3.org/2000/svg" width="13" height="12" viewBox="0 0 13 12" fill="none">
  <path d="M11.6303 3.94662V3.42274C11.6292 3.09187 11.4995 2.77491 11.2695 2.54131C11.0395 2.30772 10.7281 2.17655 10.4034 2.17655H9.31667L8.65064 1.08514C8.59675 0.998114 8.5118 0.935811 8.41371 0.911377C8.31561 0.886942 8.21203 0.902287 8.12482 0.954173L6.03714 2.17655H1.22301C0.898961 2.1776 0.588479 2.30923 0.359343 2.54271C0.130207 2.77619 0.00102709 3.09256 0 3.42274V10.6499C-1.63627e-06 10.9807 0.128729 11.2981 0.357976 11.5325C0.587223 11.7668 0.898288 11.899 1.22301 11.9H11.2408C11.5655 11.899 11.8765 11.7668 12.1058 11.5325C12.335 11.2981 12.4638 10.9807 12.4638 10.6499V5.12534C12.4632 4.86474 12.3825 4.61085 12.233 4.39941C12.0835 4.18797 11.8727 4.02962 11.6303 3.94662ZM11.6848 8.55436H10.4034C10.2923 8.54377 10.1891 8.49131 10.1139 8.40726C10.0388 8.32321 9.99716 8.21362 9.99716 8.09993C9.99716 7.98625 10.0388 7.87665 10.1139 7.7926C10.1891 7.70855 10.2923 7.6561 10.4034 7.64551H11.6848V8.55436ZM10.4034 2.97031C10.5215 2.9703 10.6348 3.01784 10.7187 3.10258C10.8026 3.18731 10.8502 3.30239 10.8513 3.42274V3.87518H10.3605L9.80353 2.97031H10.4034ZM8.17935 1.83127L9.43351 3.87518H4.69728L8.17935 1.83127ZM1.21522 2.97031H4.67391L3.11594 3.87518H1.20743C1.09486 3.86406 0.989867 3.81239 0.911334 3.72946C0.832801 3.64653 0.785874 3.53777 0.778986 3.42274C0.778986 3.30275 0.825764 3.18767 0.909034 3.10282C0.992305 3.01797 1.10525 2.97031 1.22301 2.97031H1.21522ZM11.233 11.1063H1.22301C1.10489 11.1052 0.991957 11.0567 0.908797 10.9712C0.825637 10.8857 0.778981 10.7702 0.778986 10.6499V4.57766C0.919733 4.6373 1.07057 4.66831 1.22301 4.66894H11.2408C11.3589 4.66998 11.4718 4.71853 11.555 4.80401C11.6381 4.88949 11.6848 5.00498 11.6848 5.12534V6.85176H10.4034C10.0904 6.86974 9.7961 7.00908 9.5808 7.24119C9.36551 7.47329 9.24555 7.78056 9.24555 8.09993C9.24555 8.41931 9.36551 8.72657 9.5808 8.95867C9.7961 9.19078 10.0904 9.33012 10.4034 9.34811H11.6848V10.6499C11.6848 10.7702 11.6381 10.8857 11.555 10.9712C11.4718 11.0567 11.3589 11.1052 11.2408 11.1063H11.233Z" fill="#003553"/>
</svg>