<svg xmlns="http://www.w3.org/2000/svg" width="12" height="15" viewBox="0 0 12 15" fill="none">
  <g clip-path="url(#clip0_6526_28951)">
    <path d="M3.77123 7.99394H4.34901L5.17441 6.92726L6.74266 9.41615L7.73314 7.99395H8.22838M3.02838 2.30503H2.28552C1.46498 2.30503 0.799805 2.94178 0.799805 3.72726V12.2606C0.799805 13.0461 1.46498 13.6828 2.28552 13.6828H9.71409C10.5346 13.6828 11.1998 13.0461 11.1998 12.2606V3.72726C11.1998 2.94178 10.5346 2.30503 9.71409 2.30503H8.97123M3.02838 2.30503C3.02838 3.0905 3.69355 3.72726 4.51409 3.72726H7.48552C8.30606 3.72726 8.97123 3.0905 8.97123 2.30503M3.02838 2.30503C3.02838 1.51956 3.69355 0.882812 4.51409 0.882812H7.48552C8.30606 0.882812 8.97123 1.51956 8.97123 2.30503" stroke="#003553" stroke-width="0.8" stroke-linecap="round" stroke-linejoin="round"/>
  </g>
  <defs>
    <clipPath id="clip0_6526_28951">
      <rect width="12" height="14.4" fill="white"/>
    </clipPath>
  </defs>
</svg>