<svg xmlns="http://www.w3.org/2000/svg" width="12" height="12" viewBox="0 0 12 12" fill="none">
  <path d="M7.78125 8.76562C7.52234 8.76562 7.3125 8.97546 7.3125 9.23438C7.3125 10.2424 6.49246 11.0625 5.48438 11.0625C4.47629 11.0625 3.65625 10.2424 3.65625 9.23438V7.88718L5.32269 5.46909C5.33295 5.45416 5.3421 5.43878 5.35043 5.42313C5.3822 5.39346 5.41351 5.36325 5.44409 5.33212C6.0444 4.72183 6.375 3.86865 6.375 2.92969C6.375 2.92163 6.37482 2.91357 6.37436 2.90561L6.375 1.08984C6.375 0.488892 5.88611 0 5.28516 0H4.40625C4.14734 0 3.9375 0.209839 3.9375 0.46875V0.9375C3.9375 1.19641 4.14734 1.40625 4.40625 1.40625C4.66516 1.40625 4.875 1.19641 4.875 0.9375H5.28516C5.3692 0.9375 5.4375 1.0058 5.4375 1.08966L5.43686 2.9295C5.43686 2.9371 5.43704 2.94461 5.43741 2.95203C5.42734 4.32578 4.48425 5.32031 3.1875 5.32031C1.88379 5.32031 0.9375 4.31488 0.9375 2.92969C0.9375 2.91513 0.936584 2.90067 0.935303 2.88638C0.936676 2.8721 0.9375 2.85773 0.9375 2.84308V1.08984C0.9375 1.0058 1.0058 0.9375 1.08984 0.9375H1.47711C1.48938 1.18552 1.69427 1.38281 1.94531 1.38281C2.20422 1.38281 2.41406 1.17297 2.41406 0.914062V0.46875C2.41406 0.209839 2.20422 0 1.94531 0H1.08984C0.488892 0 0 0.488892 0 1.08984V2.84308C0 2.85773 0.000915527 2.8721 0.00219727 2.88638C0.000915527 2.90067 0 2.91513 0 2.92969C0 3.86865 0.330597 4.72183 0.930908 5.33212C0.949677 5.35117 0.968628 5.36993 0.987762 5.38843C0.999756 5.41626 1.0145 5.44327 1.03235 5.46909L2.71875 7.9162V9.23438C2.71875 10.7594 3.95938 12 5.48438 12C7.00937 12 8.25 10.7594 8.25 9.23438C8.25 8.97546 8.04016 8.76562 7.78125 8.76562ZM3.1875 6.25781C3.34891 6.25781 3.50803 6.24637 3.66385 6.22403L3.17752 6.92972L2.68881 6.22064C2.85178 6.24518 3.0184 6.25781 3.1875 6.25781ZM11.0625 5.02597V1.875C11.0625 0.841095 10.2214 0 9.1875 0C8.15359 0 7.3125 0.841095 7.3125 1.875V6.89062C7.3125 7.14954 7.52234 7.35938 7.78125 7.35938C8.04016 7.35938 8.25 7.14954 8.25 6.89062V1.875C8.25 1.35809 8.67059 0.9375 9.1875 0.9375C9.70441 0.9375 10.125 1.35809 10.125 1.875V5.02597C9.57944 5.21942 9.1875 5.74045 9.1875 6.35156C9.1875 7.12701 9.8183 7.75781 10.5938 7.75781C11.3692 7.75781 12 7.12701 12 6.35156C12 5.74045 11.6081 5.21942 11.0625 5.02597ZM10.5938 6.82031C10.3353 6.82031 10.125 6.61002 10.125 6.35156C10.125 6.09311 10.3353 5.88281 10.5938 5.88281C10.8522 5.88281 11.0625 6.09311 11.0625 6.35156C11.0625 6.61002 10.8522 6.82031 10.5938 6.82031Z" fill="#003553"/>
</svg>